<?xml version="1.0" standalone="no"?>
<!DOCTYPE svg PUBLIC "-//W3C//DTD SVG 20010904//EN"
 "http://www.w3.org/TR/2001/REC-SVG-20010904/DTD/svg10.dtd">
<svg version="1.0" xmlns="http://www.w3.org/2000/svg"
 width="746.000000pt" height="746.000000pt" viewBox="0 0 746.000000 746.000000"
 preserveAspectRatio="xMidYMid meet">
<metadata>
Created by potrace 1.14, written by Peter Selinger 2001-2017
</metadata>
<g transform="translate(0.000000,746.000000) scale(0.100000,-0.100000)"
fill="#000000" stroke="none">
<path d="M709 7422 c-37 -38 -38 -40 -34 -103 15 -275 120 -502 318 -684 87
-80 172 -138 298 -200 52 -26 103 -52 113 -57 20 -10 209 -77 236 -83 8 -2 47
-13 85 -24 39 -10 84 -22 100 -25 17 -3 64 -12 105 -21 41 -8 89 -17 105 -19
17 -3 30 -5 30 -6 0 -1 38 -6 110 -14 28 -3 59 -7 70 -10 11 -2 63 -7 115 -11
52 -4 113 -9 135 -11 22 -2 132 -6 244 -9 113 -3 206 -7 208 -8 1 -2 3 -1367
3 -3033 l0 -3030 36 -35 35 -34 682 -3 c375 -2 697 0 715 3 34 6 68 36 83 72
5 13 9 1315 9 3002 l1 2978 22 31 c23 34 66 53 113 52 16 -1 90 -1 164 -1 74
0 140 -1 145 -1 6 0 46 1 90 1 44 0 87 0 95 0 8 0 53 0 100 1 167 2 305 2 330
0 14 -1 32 -2 40 -1 12 0 271 0 305 0 6 -1 46 0 90 0 44 0 87 0 95 0 8 0 53 0
100 1 112 1 372 2 388 1 112 -4 148 7 180 53 l22 33 -2 581 -3 582 -33 32 -32
33 -2986 2 -2986 3 -39 -38z"/>
</g>
</svg>
