<svg width="306" height="373" viewBox="0 0 306 373" fill="none" xmlns="http://www.w3.org/2000/svg">
<path d="M114 367V66H192V367C192 370.314 189.314 373 186 373H120C116.686 373 114 370.314 114 367Z" fill="url(#paint0_linear_4_2)"/>
<path d="M114 66C11.2161 66 1.10352 26.5741 0.108572 5.98985C-0.0514109 2.68001 2.77123 5.72247e-06 6.08494 5.71916e-06L299.807 0C303.121 0 306 2.69911 306 6.01282V59.9872C306 63.3009 303.314 66 300 66H198C194.686 66 192 68.6863 192 72V157.5C192 127 176.4 66 114 66Z" fill="url(#paint1_linear_4_2)"/>
<defs>
<linearGradient id="paint0_linear_4_2" x1="192" y1="66" x2="113.761" y2="373.44" gradientUnits="userSpaceOnUse">
<stop offset="0.078125" stop-color="#070A50"/>
<stop offset="1" stop-color="#FFC01E"/>
</linearGradient>
<linearGradient id="paint1_linear_4_2" x1="-7.87782e-06" y1="1.21627e-05" x2="192" y2="158" gradientUnits="userSpaceOnUse">
<stop stop-color="#FFC01E"/>
<stop offset="1" stop-color="#070A50"/>
</linearGradient>
</defs>
</svg>
